<svg id="Layer_1" data-name="Layer 1" xmlns="http://www.w3.org/2000/svg" viewBox="0 0 200 200"><defs><style>.cls-1{fill:#a6c246;}</style></defs><title>AW_Tangnam_Kaset_Sticker</title><path class="cls-1" d="M79.51,149.57A94.09,94.09,0,0,1,85.68,99.5,87,87,0,0,0,10,77.25,90.8,90.8,0,0,0,79.51,149.57Z"/><path class="cls-1" d="M112.38,150.79a86.7,86.7,0,0,0-7.54-25,130.72,130.72,0,0,0-15.73,25.41,89.73,89.73,0,0,0,10.15.59A91.61,91.61,0,0,0,112.38,150.79Z"/><path class="cls-1" d="M90.88,104.79a86.27,86.27,0,0,0-4.6,43.92,134.65,134.65,0,0,1,16.78-26.49A87.64,87.64,0,0,0,90.88,104.79Z"/><path class="cls-1" d="M189.11,73.65a89.38,89.38,0,0,0,.18-23.78A87.28,87.28,0,0,0,93.78,98a94.73,94.73,0,0,1,14,18.73A133.92,133.92,0,0,1,189.11,73.65Z"/><path class="cls-1" d="M109.58,120.08a93.3,93.3,0,0,1,9.48,29.47,90.84,90.84,0,0,0,69.46-72.21A130.36,130.36,0,0,0,109.58,120.08Z"/></svg>