<svg xmlns="http://www.w3.org/2000/svg" viewBox="0 0 302 302"><defs><style>.cls-1,.cls-2{fill:#716559;}.cls-2{opacity:0.5;}.cls-3{font-size:34.81px;font-family:SukhumvitSet-Bold, Sukhumvit Set;font-weight:700;}.cls-3,.cls-4{fill:#fff;}.cls-5{fill:none;}</style></defs><title>tel</title><g id="Layer_3" data-name="Layer 3"><rect class="cls-1" y="-83" width="905" height="770"/><rect class="cls-2" x="-0.02" width="302" height="302"/><rect class="cls-2" x="301.94" width="302" height="302"/><text class="cls-3" transform="translate(90.66 242.72)">ปากช่อง</text><path class="cls-4" d="M206,91.74H141.24a4.31,4.31,0,0,0-4.31,4.31v73a4.31,4.31,0,0,0,4.31,4.31h8.93v9.49a3.53,3.53,0,0,1-3.53,3.53h-27.8c-1.91,0-3.53-1.31-3.53-2.87v-2.87h10.15a4.41,4.41,0,0,0,4.41-4.41V88.88a4.41,4.41,0,0,0-4.41-4.41H96.33a4.41,4.41,0,0,0-4.41,4.41v87.39a4.41,4.41,0,0,0,4.41,4.41h10.15v2.87c0,6.45,5.54,11.7,12.36,11.7h27.8A12.36,12.36,0,0,0,159,182.88v-9.49h46.92a4.41,4.41,0,0,0,4.41-4.41V96.16A4.41,4.41,0,0,0,206,91.75h0Zm-51.41,58.92H147.3a3.53,3.53,0,0,1,0-7.06h7.28a3.53,3.53,0,0,1,0,7.06Zm0-14.56H147.3a3.53,3.53,0,0,1,0-7.06h7.28a3.53,3.53,0,0,1,0,7.06Zm0-14.56H147.3a3.53,3.53,0,0,1,0-7.06h7.28a3.53,3.53,0,0,1,0,7.06Zm21.84,29.13h-7.28a3.53,3.53,0,0,1,0-7.06h7.28a3.53,3.53,0,0,1,0,7.06Zm0-14.56h-7.28a3.53,3.53,0,0,1,0-7.06h7.28a3.53,3.53,0,0,1,0,7.06Zm0-14.56h-7.28a3.53,3.53,0,0,1,0-7.06h7.28a3.53,3.53,0,0,1,0,7.06Zm21.84,29.13H191a3.53,3.53,0,0,1,0-7.06h7.28a3.53,3.53,0,0,1,0,7.06Zm0-14.56H191a3.53,3.53,0,0,1,0-7.06h7.28a3.53,3.53,0,0,1,0,7.06Zm0-14.56H191a3.53,3.53,0,0,1,0-7.06h7.28a3.53,3.53,0,0,1,0,7.06Z"/></g><g id="Layer_1" data-name="Layer 1"><rect id="_Slice_" data-name="&lt;Slice&gt;" class="cls-5" width="302" height="302"/></g></svg>