<svg xmlns="http://www.w3.org/2000/svg" viewBox="0 0 302 302"><defs><style>.cls-1,.cls-2{fill:#716559;}.cls-2{opacity:0.5;}.cls-3{font-size:34.81px;font-family:SukhumvitSet-Bold, Sukhumvit Set;font-weight:700;}.cls-3,.cls-4{fill:#fff;}.cls-5{fill:none;}</style></defs><title>tel</title><g id="Layer_3" data-name="Layer 3"><rect class="cls-1" y="-385" width="905" height="770"/><rect class="cls-2" x="-0.02" width="302" height="302"/><rect class="cls-2" x="301.94" width="302" height="302"/><text class="cls-3" transform="translate(90.66 242.72)">ปากช่อง</text><path class="cls-4" d="M177,82.34H125.26a9,9,0,0,0-8.95,9V189.1a8.94,8.94,0,0,0,8.95,8.95H177a8.94,8.94,0,0,0,8.94-8.95V91.29A9,9,0,0,0,177,82.34Zm-38.63,5.44H163.9c.65,0,1.16,1,1.16,2.15s-.52,2.16-1.16,2.16H138.36c-.65,0-1.16-1-1.16-2.16S137.71,87.78,138.36,87.78Zm12.77,101.44a5.71,5.71,0,1,1,5.7-5.72A5.72,5.72,0,0,1,151.13,189.21Zm28.1-19.58H123V97.45h56.21v72.18Z"/></g><g id="Layer_1" data-name="Layer 1"><rect id="_Slice_" data-name="&lt;Slice&gt;" class="cls-5" width="302" height="302"/></g></svg>