<svg xmlns="http://www.w3.org/2000/svg" viewBox="0 0 301 302"><defs><style>.cls-1,.cls-2{fill:#716559;}.cls-2{opacity:0.5;}.cls-3{fill:#a5c146;}.cls-4{fill:#fff;}.cls-5{fill:none;}</style></defs><title>tel</title><g id="Layer_3" data-name="Layer 3"><rect class="cls-1" x="-604" y="-83" width="905" height="770"/><rect class="cls-2" width="301" height="302"/><path class="cls-3" d="M126.83,237.19a7.14,7.14,0,0,1-1.91,5.31q-1.91,1.9-6,1.9t-6-1.79a6.72,6.72,0,0,1-1.9-5.13v-1.81a3.89,3.89,0,0,1,.49-2,11,11,0,0,1,1.08-1.57q.59-.71,1.08-1.39a2.39,2.39,0,0,0,.49-1.41v-.49a.71.71,0,0,0-.8-.8h-2.12v-3.55h2.68a7.93,7.93,0,0,1,2.23.26,3.47,3.47,0,0,1,1.39.75,2.61,2.61,0,0,1,.73,1.24,6.42,6.42,0,0,1,.21,1.72v.87a3.42,3.42,0,0,1-.45,1.78,13.88,13.88,0,0,1-1,1.48,16.25,16.25,0,0,0-1,1.45,3,3,0,0,0-.45,1.64v1.84a3.34,3.34,0,0,0,.85,2.54,3.56,3.56,0,0,0,2.52.8,3.38,3.38,0,0,0,2.52-.87,3.81,3.81,0,0,0,.85-2.75v-3.62a2.71,2.71,0,0,0-.37-1.6,1.36,1.36,0,0,0-1.17-.49h-.52l-.7-1.67,3.69-5.36H128l-3.93,5a3.67,3.67,0,0,1,2.09,1.6,4.88,4.88,0,0,1,.7,2.58Z"/><path class="cls-3" d="M122.13,217.83a.71.71,0,0,0,.8.8h8.91V222h-10a5.51,5.51,0,0,1-1.55-.21,3.15,3.15,0,0,1-1.24-.68,3.34,3.34,0,0,1-.84-1.22,4.84,4.84,0,0,1-.31-1.86v-1.74h4.18Z"/><path class="cls-3" d="M143.23,224.48h4.53v12a9.56,9.56,0,0,1-.52,3.24,6.28,6.28,0,0,1-1.64,2.51,7.56,7.56,0,0,1-2.89,1.62,14,14,0,0,1-4.28.57,12.26,12.26,0,0,1-3.24-.4,7.18,7.18,0,0,1-2.52-1.22,5.59,5.59,0,0,1-1.65-2.05,6.56,6.56,0,0,1-.59-2.87,4.36,4.36,0,0,1,1-2.87,4.13,4.13,0,0,1,2.52-1.48,3.53,3.53,0,0,1-1.29-.57,5.66,5.66,0,0,1-1.13-1,4.82,4.82,0,0,1-.8-1.39,4.54,4.54,0,0,1-.3-1.62,4.59,4.59,0,0,1,.37-1.83,4.29,4.29,0,0,1,1-1.48,5,5,0,0,1,1.67-1,6.48,6.48,0,0,1,2.25-.37,12.39,12.39,0,0,1,2.31.19,7.21,7.21,0,0,1,1.72.54l-.45,3.38a5.86,5.86,0,0,0-1.15-.35,5.71,5.71,0,0,0-1-.1,2.83,2.83,0,0,0-1.76.47,1.52,1.52,0,0,0-.61,1.27,1.78,1.78,0,0,0,.77,1.55,2.84,2.84,0,0,0,1.67.54h2.65l.38,3.48h-2.37a3.22,3.22,0,0,0-2.21.7,2.43,2.43,0,0,0-.78,1.92,2.6,2.6,0,0,0,1,2.21,4.23,4.23,0,0,0,2.61.78,4.77,4.77,0,0,0,3.52-1.18,4.28,4.28,0,0,0,1.18-3.17Z"/><path class="cls-3" d="M157.53,240.15a3.86,3.86,0,0,1-1,2.8,4,4,0,0,1-3,1h-2.65v-3.55h1.6q.52,0,.52-.56v-4a3.83,3.83,0,0,1,.45-1.91,3.5,3.5,0,0,1,1.25-1.29l-3.17-2.44a7.06,7.06,0,0,1,1.18-2.28A9,9,0,0,1,154.8,226a11,11,0,0,1,2.8-1.37,10.71,10.71,0,0,1,3.41-.52,11.18,11.18,0,0,1,3.74.57,7.68,7.68,0,0,1,2.71,1.6,6.58,6.58,0,0,1,1.65,2.47,8.69,8.69,0,0,1,.56,3.15V244h-4.52V231.86a4.06,4.06,0,0,0-1.13-3.13,4.41,4.41,0,0,0-3.12-1,5.52,5.52,0,0,0-2.8.73,4.7,4.7,0,0,0-1.79,1.64l3.27,2.61a3.05,3.05,0,0,0-1.57,1.1,3.59,3.59,0,0,0-.49,2Z"/><path class="cls-3" d="M164.46,254.07a5.86,5.86,0,0,1-3.83-1.1,3.51,3.51,0,0,1-1.32-2.84v-.73h-2v-3.17h5.92v3.93a1,1,0,0,0,.38.86,1.5,1.5,0,0,0,.87.26,1.48,1.48,0,0,0,.89-.26,1,1,0,0,0,.37-.86v-3.93h4v3.9a3.48,3.48,0,0,1-1.36,2.84A6,6,0,0,1,164.46,254.07Z"/><path class="cls-3" d="M186.77,224.48h4.53V237a7.77,7.77,0,0,1-1.78,5.55,7.26,7.26,0,0,1-6.79,1.6,8.69,8.69,0,0,1-1.62-.66,7.45,7.45,0,0,1-1.34-.91,6.94,6.94,0,0,1-1-1l-.49,2.4h-4v-19.5h4.53v13.12a5.58,5.58,0,0,0,.8,1.24,5.74,5.74,0,0,0,1.11,1,5.39,5.39,0,0,0,1.34.68,4.46,4.46,0,0,0,1.45.24q3.27,0,3.27-4Z"/><path class="cls-3" d="M175.46,222v-3.41H191.3V222Z"/><path class="cls-3" d="M180.2,86.5H128.47a9,9,0,0,0-8.95,9v97.81a8.94,8.94,0,0,0,8.95,8.95H180.2a8.94,8.94,0,0,0,8.94-8.95V95.46A9,9,0,0,0,180.2,86.5Zm-38.63,5.44h25.54c.65,0,1.16,1,1.16,2.15s-.52,2.16-1.16,2.16H141.57c-.65,0-1.16-1-1.16-2.16S140.92,91.94,141.57,91.94Zm12.77,101.44a5.71,5.71,0,1,1,5.7-5.72A5.72,5.72,0,0,1,154.34,193.38Zm28.1-19.58H126.23V101.62h56.21V173.8Z"/><path class="cls-4" d="M176,82.34H124.31a9,9,0,0,0-8.95,9V189.1a8.94,8.94,0,0,0,8.95,8.95H176A8.94,8.94,0,0,0,185,189.1V91.29A9,9,0,0,0,176,82.34ZM137.4,87.78h25.54c.65,0,1.16,1,1.16,2.15s-.52,2.16-1.16,2.16H137.4c-.65,0-1.16-1-1.16-2.16S136.75,87.78,137.4,87.78Zm12.77,101.44a5.71,5.71,0,1,1,5.7-5.72A5.72,5.72,0,0,1,150.18,189.21Zm28.1-19.58H122.07V97.45h56.21v72.18Z"/><path class="cls-4" d="M125.57,235.93a7.14,7.14,0,0,1-1.91,5.31q-1.91,1.9-6,1.9t-6-1.79a6.72,6.72,0,0,1-1.9-5.13V234.4a3.89,3.89,0,0,1,.49-2,11,11,0,0,1,1.08-1.57q.59-.71,1.08-1.39a2.39,2.39,0,0,0,.49-1.41v-.49a.71.71,0,0,0-.8-.8H110v-3.55h2.68a7.93,7.93,0,0,1,2.23.26,3.47,3.47,0,0,1,1.39.75,2.61,2.61,0,0,1,.73,1.24,6.42,6.42,0,0,1,.21,1.72v.87a3.42,3.42,0,0,1-.45,1.78,13.88,13.88,0,0,1-1,1.48,16.25,16.25,0,0,0-1,1.45,3,3,0,0,0-.45,1.64v1.84a3.34,3.34,0,0,0,.85,2.54,3.56,3.56,0,0,0,2.52.8,3.38,3.38,0,0,0,2.52-.87A3.81,3.81,0,0,0,121,236v-3.62a2.71,2.71,0,0,0-.37-1.6,1.36,1.36,0,0,0-1.17-.49H119l-.7-1.67,3.69-5.36h4.73l-3.93,5a3.67,3.67,0,0,1,2.09,1.6,4.88,4.88,0,0,1,.7,2.58Z"/><path class="cls-4" d="M120.87,216.57a.71.71,0,0,0,.8.8h8.91v3.41h-10a5.51,5.51,0,0,1-1.55-.21,3.15,3.15,0,0,1-1.24-.68,3.34,3.34,0,0,1-.84-1.22,4.84,4.84,0,0,1-.31-1.86v-1.74h4.18Z"/><path class="cls-4" d="M142,223.22h4.53v12a9.56,9.56,0,0,1-.52,3.24,6.28,6.28,0,0,1-1.64,2.51,7.56,7.56,0,0,1-2.89,1.62,14,14,0,0,1-4.28.57,12.26,12.26,0,0,1-3.24-.4,7.18,7.18,0,0,1-2.52-1.22,5.59,5.59,0,0,1-1.65-2.05,6.56,6.56,0,0,1-.59-2.87,4.36,4.36,0,0,1,1-2.87,4.13,4.13,0,0,1,2.52-1.48,3.53,3.53,0,0,1-1.29-.57,5.66,5.66,0,0,1-1.13-1,4.82,4.82,0,0,1-.8-1.39,4.54,4.54,0,0,1-.3-1.62,4.59,4.59,0,0,1,.37-1.83,4.29,4.29,0,0,1,1-1.48,5,5,0,0,1,1.67-1,6.48,6.48,0,0,1,2.25-.37,12.39,12.39,0,0,1,2.31.19,7.21,7.21,0,0,1,1.72.54l-.45,3.38a5.86,5.86,0,0,0-1.15-.35,5.71,5.71,0,0,0-1-.1,2.83,2.83,0,0,0-1.76.47,1.52,1.52,0,0,0-.61,1.27,1.78,1.78,0,0,0,.77,1.55,2.84,2.84,0,0,0,1.67.54h2.65l.38,3.48h-2.37a3.22,3.22,0,0,0-2.21.7,2.43,2.43,0,0,0-.78,1.92,2.6,2.6,0,0,0,1,2.21,4.23,4.23,0,0,0,2.61.78,4.77,4.77,0,0,0,3.52-1.18,4.28,4.28,0,0,0,1.18-3.17Z"/><path class="cls-4" d="M156.27,238.89a3.86,3.86,0,0,1-1,2.8,4,4,0,0,1-3,1h-2.65v-3.55h1.6q.52,0,.52-.56v-4a3.83,3.83,0,0,1,.45-1.91,3.5,3.5,0,0,1,1.25-1.29l-3.17-2.44a7.06,7.06,0,0,1,1.18-2.28,9,9,0,0,1,2.07-1.95,11,11,0,0,1,2.8-1.37,10.71,10.71,0,0,1,3.41-.52,11.18,11.18,0,0,1,3.74.57,7.68,7.68,0,0,1,2.71,1.6,6.58,6.58,0,0,1,1.65,2.47,8.69,8.69,0,0,1,.56,3.15v12.12H163.9V230.6a4.06,4.06,0,0,0-1.13-3.13,4.41,4.41,0,0,0-3.12-1,5.52,5.52,0,0,0-2.8.73,4.7,4.7,0,0,0-1.79,1.64l3.27,2.61a3.05,3.05,0,0,0-1.57,1.1,3.59,3.59,0,0,0-.49,2Z"/><path class="cls-4" d="M163.2,252.81a5.86,5.86,0,0,1-3.83-1.1,3.51,3.51,0,0,1-1.32-2.84v-.73h-2V245h5.92v3.93a1,1,0,0,0,.38.86,1.5,1.5,0,0,0,.87.26,1.48,1.48,0,0,0,.89-.26,1,1,0,0,0,.37-.86V245h4v3.9a3.48,3.48,0,0,1-1.36,2.84A6,6,0,0,1,163.2,252.81Z"/><path class="cls-4" d="M185.51,223.22H190v12.5a7.77,7.77,0,0,1-1.78,5.55,7.26,7.26,0,0,1-6.79,1.6,8.69,8.69,0,0,1-1.62-.66,7.45,7.45,0,0,1-1.34-.91,6.94,6.94,0,0,1-1-1l-.49,2.4h-4v-19.5h4.53v13.12a5.58,5.58,0,0,0,.8,1.24,5.74,5.74,0,0,0,1.11,1,5.39,5.39,0,0,0,1.34.68,4.46,4.46,0,0,0,1.45.24q3.27,0,3.27-4Z"/><path class="cls-4" d="M174.2,220.79v-3.41H190v3.41Z"/></g><g id="Layer_1" data-name="Layer 1"><rect id="_Slice_" data-name="&lt;Slice&gt;" class="cls-5" width="301" height="302"/></g></svg>