<svg xmlns="http://www.w3.org/2000/svg" viewBox="0 0 302 303"><defs><style>.cls-1,.cls-2{fill:#716559;}.cls-2{opacity:0.5;}.cls-3{fill:#a5c146;}.cls-4{fill:#fff;}.cls-5{fill:none;}</style></defs><title>tel</title><g id="Layer_3" data-name="Layer 3"><rect class="cls-1" x="-302" y="-385" width="905" height="770"/><rect class="cls-2" x="-0.06" width="302" height="302"/><path class="cls-3" d="M112.36,244V223.09a7.42,7.42,0,0,0-.37-2.42,7,7,0,0,0-.91-1.81,5.55,5.55,0,0,0-1.2-1.24,7,7,0,0,0-1.29-.77l-.07-1.18a9.11,9.11,0,0,1,3.34-3.08,10.73,10.73,0,0,1,5.4-1.27,16.39,16.39,0,0,1,3.67.35,22.32,22.32,0,0,1,2.77.84l-.73,3.66a11.9,11.9,0,0,0-2.75-1,13.33,13.33,0,0,0-2.75-.28,6.57,6.57,0,0,0-2.73.49,6.24,6.24,0,0,0-1.69,1.08,8.12,8.12,0,0,1,2.82,2.71,7.75,7.75,0,0,1,1,4.18V244Z"/><path class="cls-3" d="M126.07,235.35a3.56,3.56,0,0,1,1.31-1.36,4.45,4.45,0,0,1,2.38-.56h1.95v3.76h-2.05a4,4,0,0,0-2.44.63,3.17,3.17,0,0,0-1.15,1.74V244h-4.52V231.86a7.72,7.72,0,0,1,.61-3.06,7.12,7.12,0,0,1,1.74-2.47,8.28,8.28,0,0,1,2.77-1.65,11.69,11.69,0,0,1,7.45,0,8.29,8.29,0,0,1,2.77,1.65,7.15,7.15,0,0,1,1.74,2.47,7.74,7.74,0,0,1,.61,3.06V244h-4.53V231.9a4.25,4.25,0,0,0-1.11-3,4.87,4.87,0,0,0-6.4,0,4.25,4.25,0,0,0-1.11,3Z"/><path class="cls-3" d="M149.61,240.78a6.12,6.12,0,0,0,2.8-.52,1.7,1.7,0,0,0,1-1.6,1.67,1.67,0,0,0-.37-1.08,3.2,3.2,0,0,0-1-.78,9.18,9.18,0,0,0-1.36-.59l-1.48-.5q-1.29-.42-2.45-.92a8.18,8.18,0,0,1-2-1.24,5.72,5.72,0,0,1-1.39-1.72,5.06,5.06,0,0,1-.52-2.38,4.3,4.3,0,0,1,.54-2.12,5.39,5.39,0,0,1,1.51-1.71,7.32,7.32,0,0,1,2.32-1.13,10.25,10.25,0,0,1,2.94-.4,14.19,14.19,0,0,1,3.92.49,16.82,16.82,0,0,1,3.15,1.25L156,229a10.35,10.35,0,0,0-2.73-1,14,14,0,0,0-2.94-.3,5.51,5.51,0,0,0-2.23.4,1.35,1.35,0,0,0-.91,1.3,1.75,1.75,0,0,0,1.15,1.58,24.29,24.29,0,0,0,3,1.2,24.31,24.31,0,0,1,2.65,1,8.67,8.67,0,0,1,2,1.31,5,5,0,0,1,1.31,1.78,6,6,0,0,1,.45,2.42,5.26,5.26,0,0,1-.49,2.28,5,5,0,0,1-1.46,1.79A7,7,0,0,1,153.4,244a12.62,12.62,0,0,1-3.45.42,16.43,16.43,0,0,1-3.88-.44,12,12,0,0,1-3.18-1.24l1.08-3.45a13.07,13.07,0,0,0,2.71,1.1A10.74,10.74,0,0,0,149.61,240.78Z"/><path class="cls-3" d="M169.37,244V231.45q0-3.76-3.13-3.76a8.87,8.87,0,0,0-3.08.56,13.52,13.52,0,0,0-2.7,1.32l-1.15-3.24a15,15,0,0,1,3.32-1.6,12,12,0,0,1,4-.66,7,7,0,0,1,5.43,2,7.85,7.85,0,0,1,1.84,5.5V244Z"/><path class="cls-3" d="M193.71,237.19a7.14,7.14,0,0,1-1.91,5.31q-1.91,1.9-6,1.9t-6-1.79a6.72,6.72,0,0,1-1.9-5.13v-1.81a3.89,3.89,0,0,1,.49-2,11,11,0,0,1,1.08-1.57q.59-.71,1.08-1.39a2.39,2.39,0,0,0,.49-1.41v-.49a.71.71,0,0,0-.8-.8h-2.12v-3.55h2.68a7.93,7.93,0,0,1,2.23.26,3.47,3.47,0,0,1,1.39.75,2.61,2.61,0,0,1,.73,1.24,6.42,6.42,0,0,1,.21,1.72v.87a3.42,3.42,0,0,1-.45,1.78,13.88,13.88,0,0,1-1,1.48,16.25,16.25,0,0,0-1,1.45,3,3,0,0,0-.45,1.64v1.84a3.34,3.34,0,0,0,.85,2.54,3.56,3.56,0,0,0,2.52.8,3.38,3.38,0,0,0,2.52-.87,3.81,3.81,0,0,0,.85-2.75v-3.62a2.71,2.71,0,0,0-.37-1.6,1.36,1.36,0,0,0-1.17-.49h-.52l-.7-1.67,3.69-5.36h4.73l-3.93,5a3.67,3.67,0,0,1,2.09,1.6,4.88,4.88,0,0,1,.7,2.58Z"/><path class="cls-3" d="M181.11,86.5H129.39a9,9,0,0,0-8.95,9v97.81a8.94,8.94,0,0,0,8.95,8.95h51.73a8.94,8.94,0,0,0,8.94-8.95V95.46A9,9,0,0,0,181.11,86.5Zm-38.63,5.44H168c.65,0,1.16,1,1.16,2.15s-.52,2.16-1.16,2.16H142.48c-.65,0-1.16-1-1.16-2.16S141.83,91.94,142.48,91.94Zm12.77,101.44a5.71,5.71,0,1,1,5.7-5.72A5.72,5.72,0,0,1,155.26,193.38Zm28.1-19.58H127.15V101.62h56.21V173.8Z"/><path class="cls-4" d="M176.95,82.34H125.22a9,9,0,0,0-8.95,9V189.1a8.94,8.94,0,0,0,8.95,8.95h51.73a8.94,8.94,0,0,0,8.94-8.95V91.29A9,9,0,0,0,176.95,82.34Zm-38.63,5.44h25.54c.65,0,1.16,1,1.16,2.15s-.52,2.16-1.16,2.16H138.32c-.65,0-1.16-1-1.16-2.16S137.67,87.78,138.32,87.78Zm12.77,101.44a5.71,5.71,0,1,1,5.7-5.72A5.72,5.72,0,0,1,151.09,189.21Zm28.1-19.58H123V97.45h56.21v72.18Z"/><path class="cls-4" d="M111.1,242.72V221.83a7.42,7.42,0,0,0-.37-2.42,7,7,0,0,0-.91-1.81,5.55,5.55,0,0,0-1.2-1.24,7,7,0,0,0-1.29-.77l-.07-1.18a9.11,9.11,0,0,1,3.34-3.08,10.73,10.73,0,0,1,5.4-1.27,16.39,16.39,0,0,1,3.67.35,22.32,22.32,0,0,1,2.77.84l-.73,3.66a11.9,11.9,0,0,0-2.75-1,13.33,13.33,0,0,0-2.75-.28,6.57,6.57,0,0,0-2.73.49,6.24,6.24,0,0,0-1.69,1.08,8.12,8.12,0,0,1,2.82,2.71,7.75,7.75,0,0,1,1,4.18v20.61Z"/><path class="cls-4" d="M124.81,234.08a3.56,3.56,0,0,1,1.31-1.36,4.45,4.45,0,0,1,2.38-.56h1.95v3.76H128.4a4,4,0,0,0-2.44.63,3.17,3.17,0,0,0-1.15,1.74v4.42h-4.52V230.6a7.72,7.72,0,0,1,.61-3.06,7.12,7.12,0,0,1,1.74-2.47,8.28,8.28,0,0,1,2.77-1.65,11.69,11.69,0,0,1,7.45,0,8.29,8.29,0,0,1,2.77,1.65,7.15,7.15,0,0,1,1.74,2.47,7.74,7.74,0,0,1,.61,3.06v12.12h-4.53V230.64a4.25,4.25,0,0,0-1.11-3,4.87,4.87,0,0,0-6.4,0,4.25,4.25,0,0,0-1.11,3Z"/><path class="cls-4" d="M148.34,239.52a6.12,6.12,0,0,0,2.8-.52,1.7,1.7,0,0,0,1-1.6,1.67,1.67,0,0,0-.37-1.08,3.2,3.2,0,0,0-1-.78,9.18,9.18,0,0,0-1.36-.59l-1.48-.5q-1.29-.42-2.45-.92a8.18,8.18,0,0,1-2-1.24,5.72,5.72,0,0,1-1.39-1.72,5.06,5.06,0,0,1-.52-2.38,4.3,4.3,0,0,1,.54-2.12,5.39,5.39,0,0,1,1.51-1.71,7.32,7.32,0,0,1,2.32-1.13,10.25,10.25,0,0,1,2.94-.4,14.19,14.19,0,0,1,3.92.49,16.82,16.82,0,0,1,3.15,1.25l-1.18,3.2a10.35,10.35,0,0,0-2.73-1,14,14,0,0,0-2.94-.3,5.51,5.51,0,0,0-2.23.4,1.35,1.35,0,0,0-.91,1.3,1.75,1.75,0,0,0,1.15,1.58,24.29,24.29,0,0,0,3,1.2,24.31,24.31,0,0,1,2.65,1,8.67,8.67,0,0,1,2,1.31,5,5,0,0,1,1.31,1.78,6,6,0,0,1,.45,2.42,5.26,5.26,0,0,1-.49,2.28,5,5,0,0,1-1.46,1.79,7,7,0,0,1-2.44,1.18,12.62,12.62,0,0,1-3.45.42,16.43,16.43,0,0,1-3.88-.44,12,12,0,0,1-3.18-1.24l1.08-3.45a13.07,13.07,0,0,0,2.71,1.1A10.74,10.74,0,0,0,148.34,239.52Z"/><path class="cls-4" d="M168.11,242.72V230.19q0-3.76-3.13-3.76a8.87,8.87,0,0,0-3.08.56,13.52,13.52,0,0,0-2.7,1.32l-1.15-3.24a15,15,0,0,1,3.32-1.6,12,12,0,0,1,4-.66,7,7,0,0,1,5.43,2,7.85,7.85,0,0,1,1.84,5.5v12.39Z"/><path class="cls-4" d="M192.45,235.93a7.14,7.14,0,0,1-1.91,5.31q-1.91,1.9-6,1.9t-6-1.79a6.72,6.72,0,0,1-1.9-5.13V234.4a3.89,3.89,0,0,1,.49-2,11,11,0,0,1,1.08-1.57q.59-.71,1.08-1.39a2.39,2.39,0,0,0,.49-1.41v-.49a.71.71,0,0,0-.8-.8h-2.12v-3.55h2.68a7.93,7.93,0,0,1,2.23.26,3.47,3.47,0,0,1,1.39.75,2.61,2.61,0,0,1,.73,1.24,6.42,6.42,0,0,1,.21,1.72v.87a3.42,3.42,0,0,1-.45,1.78,13.88,13.88,0,0,1-1,1.48,16.25,16.25,0,0,0-1,1.45,3,3,0,0,0-.45,1.64v1.84a3.34,3.34,0,0,0,.85,2.54,3.56,3.56,0,0,0,2.52.8,3.38,3.38,0,0,0,2.52-.87,3.81,3.81,0,0,0,.85-2.75v-3.62a2.71,2.71,0,0,0-.37-1.6,1.36,1.36,0,0,0-1.17-.49h-.52l-.7-1.67,3.69-5.36h4.73l-3.93,5a3.67,3.67,0,0,1,2.09,1.6,4.88,4.88,0,0,1,.7,2.58Z"/><rect id="_Slice_" data-name="&lt;Slice&gt;" class="cls-5" width="302" height="303"/></g></svg>