<svg xmlns="http://www.w3.org/2000/svg" viewBox="0 0 302 302"><defs><style>.cls-1,.cls-2{fill:#716559;}.cls-2{opacity:0.5;}.cls-3{fill:#a5c146;}.cls-4{fill:#fff;}.cls-5{fill:none;}</style></defs><title>tel</title><g id="Layer_3" data-name="Layer 3"><rect class="cls-1" y="-385" width="905" height="770"/><rect class="cls-2" x="-0.02" width="302" height="302"/><rect class="cls-2" x="301.94" width="302" height="302"/><path class="cls-3" d="M102.78,244.4a9.4,9.4,0,0,1-6.33-2q-2.26-1.95-2.26-5.88V224.48h4.52v12.08a4.25,4.25,0,0,0,1.08,3.12,4.63,4.63,0,0,0,6,0,4.25,4.25,0,0,0,1.08-3.12V217.87h4.53v18.69q0,3.93-2.26,5.88A9.4,9.4,0,0,1,102.78,244.4Z"/><path class="cls-3" d="M123.84,244V231.45q0-3.76-3.13-3.76a8.87,8.87,0,0,0-3.08.56,13.52,13.52,0,0,0-2.7,1.32l-1.15-3.24a15,15,0,0,1,3.32-1.6,12,12,0,0,1,4-.66,7,7,0,0,1,5.43,2,7.85,7.85,0,0,1,1.84,5.5V244Z"/><path class="cls-3" d="M145.49,244V231.86a4.06,4.06,0,0,0-1.13-3.13,4.36,4.36,0,0,0-3.08-1,5.53,5.53,0,0,0-1.44.19,6.08,6.08,0,0,0-1.32.52,5.35,5.35,0,0,0-1.08.77,3.46,3.46,0,0,0-.71.89l2.92,2.47a3.28,3.28,0,0,0-1.64,1.17,3.57,3.57,0,0,0-.56,2.11V244h-4.53v-8.15a3.79,3.79,0,0,1,.52-2,3.92,3.92,0,0,1,1.32-1.36l-2.82-2.3a6.9,6.9,0,0,1,1.2-2.28,9.52,9.52,0,0,1,2.07-1.95,10.73,10.73,0,0,1,2.78-1.37,10.6,10.6,0,0,1,3.38-.52,10.91,10.91,0,0,1,3.69.57,7.7,7.7,0,0,1,2.7,1.6,6.76,6.76,0,0,1,1.67,2.47,8.46,8.46,0,0,1,.57,3.15V244Z"/><path class="cls-3" d="M169.82,237.19a7.14,7.14,0,0,1-1.91,5.31q-1.91,1.9-6,1.9t-6-1.79a6.72,6.72,0,0,1-1.9-5.13v-1.81a3.89,3.89,0,0,1,.49-2,11,11,0,0,1,1.08-1.57q.59-.71,1.08-1.39a2.39,2.39,0,0,0,.49-1.41v-.49a.71.71,0,0,0-.8-.8h-2.12v-3.55h2.68a7.93,7.93,0,0,1,2.23.26,3.47,3.47,0,0,1,1.39.75,2.61,2.61,0,0,1,.73,1.24,6.42,6.42,0,0,1,.21,1.72v.87a3.42,3.42,0,0,1-.45,1.78,13.88,13.88,0,0,1-1,1.48,16.25,16.25,0,0,0-1,1.45,3,3,0,0,0-.45,1.64v1.84a3.34,3.34,0,0,0,.85,2.54,3.56,3.56,0,0,0,2.52.8,3.38,3.38,0,0,0,2.52-.87,3.81,3.81,0,0,0,.85-2.75v-3.62a2.71,2.71,0,0,0-.37-1.6,1.36,1.36,0,0,0-1.17-.49h-.52l-.7-1.67,3.69-5.36H171l-3.93,5a3.67,3.67,0,0,1,2.09,1.6,4.88,4.88,0,0,1,.7,2.58Z"/><path class="cls-3" d="M165.4,222v-6.75h4.18V222Z"/><path class="cls-3" d="M178.35,236.29q-.63,0-.63.66v.1q0,3.73,4.14,3.72a4.91,4.91,0,0,0,3.9-1.64q1.43-1.64,1.43-5.12a6.58,6.58,0,0,0-1.55-4.7,5.33,5.33,0,0,0-4.05-1.64,9.43,9.43,0,0,0-3.83.75,14.73,14.73,0,0,0-3,1.76l-1.46-3.38a17.18,17.18,0,0,1,3.58-1.9,13.52,13.52,0,0,1,5-.85,11.47,11.47,0,0,1,4,.66,8.55,8.55,0,0,1,3.12,1.95,8.73,8.73,0,0,1,2,3.17,12.11,12.11,0,0,1,.71,4.32q0,5.15-2.56,7.69a9.41,9.41,0,0,1-6.94,2.54,13.09,13.09,0,0,1-3.9-.52,7.42,7.42,0,0,1-2.77-1.5,6.25,6.25,0,0,1-1.65-2.33,7.8,7.8,0,0,1-.56-3v-.59a4.2,4.2,0,0,1,.84-2.85,3.47,3.47,0,0,1,2.71-.94h4.46v3.62Z"/><path class="cls-3" d="M199,244l-5.88-19.5h4.46l4.77,15.88h.38a2.94,2.94,0,0,0,1.6-.49,4.85,4.85,0,0,0,1.38-1.38,7.13,7.13,0,0,0,1-2.16,10.61,10.61,0,0,0,.35-2.8,7.57,7.57,0,0,0-1-4.51,3.17,3.17,0,0,0-2.63-1.34,6.89,6.89,0,0,0-2.33.45l-.66-3.31a5.75,5.75,0,0,1,1.69-.58,11,11,0,0,1,2.07-.19,6.88,6.88,0,0,1,2.92.63,6.55,6.55,0,0,1,2.35,1.84,9.18,9.18,0,0,1,1.57,3,12.94,12.94,0,0,1,.57,4,13.46,13.46,0,0,1-.66,4.37,9.59,9.59,0,0,1-1.86,3.29,8,8,0,0,1-2.84,2.07,8.86,8.86,0,0,1-3.58.71Z"/><path class="cls-3" d="M181.15,86.5H129.43a9,9,0,0,0-8.95,9v97.81a8.94,8.94,0,0,0,8.95,8.95h51.73a8.94,8.94,0,0,0,8.94-8.95V95.46A9,9,0,0,0,181.15,86.5Zm-38.63,5.44h25.54c.65,0,1.16,1,1.16,2.15s-.52,2.16-1.16,2.16H142.53c-.65,0-1.16-1-1.16-2.16S141.88,91.94,142.53,91.94ZM155.3,193.38a5.71,5.71,0,1,1,5.7-5.72A5.72,5.72,0,0,1,155.3,193.38Zm28.1-19.58H127.19V101.62H183.4V173.8Z"/><path class="cls-4" d="M177,82.34H125.26a9,9,0,0,0-8.95,9V189.1a8.94,8.94,0,0,0,8.95,8.95H177a8.94,8.94,0,0,0,8.94-8.95V91.29A9,9,0,0,0,177,82.34Zm-38.63,5.44H163.9c.65,0,1.16,1,1.16,2.15s-.52,2.16-1.16,2.16H138.36c-.65,0-1.16-1-1.16-2.16S137.71,87.78,138.36,87.78Zm12.77,101.44a5.71,5.71,0,1,1,5.7-5.72A5.72,5.72,0,0,1,151.13,189.21Zm28.1-19.58H123V97.45h56.21v72.18Z"/><path class="cls-4" d="M101.52,243.14a9.4,9.4,0,0,1-6.33-2q-2.26-1.95-2.26-5.88V223.22h4.52V235.3a4.25,4.25,0,0,0,1.08,3.12,4.63,4.63,0,0,0,6,0,4.25,4.25,0,0,0,1.08-3.12V216.61h4.53V235.3q0,3.93-2.26,5.88A9.4,9.4,0,0,1,101.52,243.14Z"/><path class="cls-4" d="M122.58,242.72V230.19q0-3.76-3.13-3.76a8.87,8.87,0,0,0-3.08.56,13.52,13.52,0,0,0-2.7,1.32l-1.15-3.24a15,15,0,0,1,3.32-1.6,12,12,0,0,1,4-.66,7,7,0,0,1,5.43,2,7.85,7.85,0,0,1,1.84,5.5v12.39Z"/><path class="cls-4" d="M144.23,242.72V230.6a4.06,4.06,0,0,0-1.13-3.13,4.36,4.36,0,0,0-3.08-1,5.53,5.53,0,0,0-1.44.19,6.08,6.08,0,0,0-1.32.52,5.35,5.35,0,0,0-1.08.77,3.46,3.46,0,0,0-.71.89l2.92,2.47a3.28,3.28,0,0,0-1.64,1.17,3.57,3.57,0,0,0-.56,2.11v8.18h-4.53v-8.15a3.79,3.79,0,0,1,.52-2,3.92,3.92,0,0,1,1.32-1.36l-2.82-2.3a6.9,6.9,0,0,1,1.2-2.28A9.52,9.52,0,0,1,134,224.7a10.73,10.73,0,0,1,2.78-1.37,10.6,10.6,0,0,1,3.38-.52,10.91,10.91,0,0,1,3.69.57,7.7,7.7,0,0,1,2.7,1.6,6.76,6.76,0,0,1,1.67,2.47,8.46,8.46,0,0,1,.57,3.15v12.12Z"/><path class="cls-4" d="M168.56,235.93a7.14,7.14,0,0,1-1.91,5.31q-1.91,1.9-6,1.9t-6-1.79a6.72,6.72,0,0,1-1.9-5.13V234.4a3.89,3.89,0,0,1,.49-2,11,11,0,0,1,1.08-1.57q.59-.71,1.08-1.39a2.39,2.39,0,0,0,.49-1.41v-.49a.71.71,0,0,0-.8-.8H153v-3.55h2.68a7.93,7.93,0,0,1,2.23.26,3.47,3.47,0,0,1,1.39.75,2.61,2.61,0,0,1,.73,1.24,6.42,6.42,0,0,1,.21,1.72v.87a3.42,3.42,0,0,1-.45,1.78,13.88,13.88,0,0,1-1,1.48,16.25,16.25,0,0,0-1,1.45,3,3,0,0,0-.45,1.64v1.84a3.34,3.34,0,0,0,.85,2.54,3.56,3.56,0,0,0,2.52.8,3.38,3.38,0,0,0,2.52-.87A3.81,3.81,0,0,0,164,236v-3.62a2.71,2.71,0,0,0-.37-1.6,1.36,1.36,0,0,0-1.17-.49H162l-.7-1.67,3.69-5.36h4.73l-3.93,5a3.67,3.67,0,0,1,2.09,1.6,4.88,4.88,0,0,1,.7,2.58Z"/><path class="cls-4" d="M164.14,220.79V214h4.18v6.75Z"/><path class="cls-4" d="M177.08,235q-.63,0-.63.66v.1q0,3.73,4.14,3.72a4.91,4.91,0,0,0,3.9-1.64q1.43-1.64,1.43-5.12a6.58,6.58,0,0,0-1.55-4.7,5.33,5.33,0,0,0-4.05-1.64,9.43,9.43,0,0,0-3.83.75,14.73,14.73,0,0,0-3,1.76L172,225.56a17.18,17.18,0,0,1,3.58-1.9,13.52,13.52,0,0,1,5-.85,11.47,11.47,0,0,1,4,.66,8.55,8.55,0,0,1,3.12,1.95,8.73,8.73,0,0,1,2,3.17,12.11,12.11,0,0,1,.71,4.32q0,5.15-2.56,7.69a9.41,9.41,0,0,1-6.94,2.54,13.09,13.09,0,0,1-3.9-.52,7.42,7.42,0,0,1-2.77-1.5,6.25,6.25,0,0,1-1.65-2.33,7.8,7.8,0,0,1-.56-3v-.59a4.2,4.2,0,0,1,.84-2.85,3.47,3.47,0,0,1,2.71-.94h4.46V235Z"/><path class="cls-4" d="M197.73,242.72l-5.88-19.5h4.46l4.77,15.88h.38a2.94,2.94,0,0,0,1.6-.49,4.85,4.85,0,0,0,1.38-1.38,7.13,7.13,0,0,0,1-2.16,10.61,10.61,0,0,0,.35-2.8,7.57,7.57,0,0,0-1-4.51,3.17,3.17,0,0,0-2.63-1.34,6.89,6.89,0,0,0-2.33.45l-.66-3.31a5.75,5.75,0,0,1,1.69-.58,11,11,0,0,1,2.07-.19,6.88,6.88,0,0,1,2.92.63,6.55,6.55,0,0,1,2.35,1.84,9.18,9.18,0,0,1,1.57,3,12.94,12.94,0,0,1,.57,4,13.46,13.46,0,0,1-.66,4.37,9.59,9.59,0,0,1-1.86,3.29A8,8,0,0,1,204.9,242a8.86,8.86,0,0,1-3.58.71Z"/></g><g id="Layer_1" data-name="Layer 1"><rect id="_Slice_" data-name="&lt;Slice&gt;" class="cls-5" width="302" height="302"/></g></svg>